<svg xmlns="http://www.w3.org/2000/svg" width="191.411" height="35" viewBox="0 0 191.411 35">
  <g id="Logo-MAU-Hiring" transform="translate(0)">
    <path id="Path_385" data-name="Path 385" d="M190.407,57.526h-1.77l1.071-13.253h2.25L193.9,49.11l2.36,6.174q1.267-3.224,2.491-6.174l2.032-4.837h2.25l1.289,13.253h-1.77l-.5-5.23-.524-5.879q-1.158,2.91-2.381,5.879l-2.054,4.936H195.41L193.466,52.3l-2.229-5.761q0,.767-.415,5.761Z" transform="translate(-156.013 -36.616)" fill="#fff"/>
    <path id="Path_402" data-name="Path 402" d="M0,0H1.77V13.253H0Z" transform="translate(51.631 7.657)" fill="#fff"/>
    <path id="Path_386" data-name="Path 386" d="M337.032,57.526h-8.04V44.273h1.77V56.091h6.27Z" transform="translate(-272.095 -36.616)" fill="#fff"/>
    <path id="Path_387" data-name="Path 387" d="M397.291,57.526h-8.04V44.273h1.77V56.091h6.27Z" transform="translate(-321.933 -36.616)" fill="#fff"/>
    <path id="Path_403" data-name="Path 403" d="M0,0H1.77V13.253H0Z" transform="translate(77.87 7.657)" fill="#fff"/>
    <path id="Path_388" data-name="Path 388" d="M490.269,49.618a6.9,6.9,0,0,1-1.781,4.985,7.146,7.146,0,0,1-9.624-.01,6.836,6.836,0,0,1-1.813-4.975,6.868,6.868,0,0,1,1.781-4.975,7.274,7.274,0,0,1,9.679-.01,6.912,6.912,0,0,1,1.759,4.985m-11.361,0a5.581,5.581,0,0,0,1.3,3.893,4.443,4.443,0,0,0,3.463,1.435,4.376,4.376,0,0,0,3.485-1.416,5.756,5.756,0,0,0,1.234-3.913,5.723,5.723,0,0,0-1.245-3.913,5,5,0,0,0-6.981.01,5.7,5.7,0,0,0-1.256,3.9" transform="translate(-394.548 -35.394)" fill="#fff"/>
    <path id="Path_389" data-name="Path 389" d="M570.916,57.526h-1.77V44.273h2.229l3.692,5.584L578.8,55.6q-.088-1.907-.087-5.722v-5.6h1.769V57.526h-2.228l-3.693-5.545q-1.114-1.671-2.054-3.117t-1.333-2.075l-.372-.609q.11,2.045.109,5.761Z" transform="translate(-470.716 -36.616)" fill="#fff"/>
    <path id="Path_390" data-name="Path 390" d="M684.144,57.526h-1.9l5.135-13.253h2.447l5.047,13.253h-1.9l-1.289-3.48h-6.227Zm2.1-5.584-.284.747h5.222l-.284-.767L688.6,45.551q-.262.845-2.359,6.391" transform="translate(-564.255 -36.616)" fill="#fff"/>
    <path id="Path_391" data-name="Path 391" d="M771.182,57.526h-1.77V44.273h2.229l3.692,5.584,3.736,5.742q-.087-1.907-.087-5.722v-5.6h1.769V57.526h-2.228l-3.692-5.545q-1.114-1.671-2.054-3.117t-1.332-2.075l-.371-.609q.109,2.045.109,5.761Z" transform="translate(-636.348 -36.616)" fill="#fff"/>
    <path id="Path_392" data-name="Path 392" d="M858.889,57.526h-4.457V44.273h4.37a7.836,7.836,0,0,1,5.342,1.819A5.958,5.958,0,0,1,866.23,50.8a6.5,6.5,0,0,1-1.934,4.8,7.324,7.324,0,0,1-5.408,1.927m-.109-11.837h-2.556V56.13h2.643A5.327,5.327,0,0,0,863,54.606a5.413,5.413,0,0,0,1.4-3.8,4.8,4.8,0,0,0-1.562-3.638,5.663,5.663,0,0,0-4.053-1.475" transform="translate(-706.664 -36.616)" fill="#fff"/>
    <path id="Path_393" data-name="Path 393" d="M980.982,52.492a5.006,5.006,0,0,1-1.431,3.874,6.67,6.67,0,0,1-7.92.029,4.8,4.8,0,0,1-1.42-3.746V44.273h1.77V52.63a3.428,3.428,0,0,0,.972,2.694,3.783,3.783,0,0,0,2.611.865q3.648,0,3.649-3.657V44.273h1.77Z" transform="translate(-802.42 -36.616)" fill="#fff"/>
    <path id="Path_394" data-name="Path 394" d="M1055.863,52.65h-2.272v4.876h-1.77V44.273h3.867a6.245,6.245,0,0,1,4.031,1.19,3.773,3.773,0,0,1,1.475,3.077,3.614,3.614,0,0,1-1.464,2.94,6.012,6.012,0,0,1-3.868,1.17m-.153-7.02h-2.119v5.663h2.272a3.965,3.965,0,0,0,2.6-.777,2.454,2.454,0,0,0,.939-1.976,2.6,2.6,0,0,0-.961-2.124,4.21,4.21,0,0,0-2.731-.787" transform="translate(-869.917 -36.616)" fill="#fff"/>
    <path id="Path_395" data-name="Path 395" d="M104.612,35.814V54.008l6.3-3.478V39.568Z" transform="translate(-86.52 -29.62)" fill="#fff" fill-rule="evenodd"/>
    <path id="Path_396" data-name="Path 396" d="M58.61,0V25.9L55.6,27.563l-3.291-1.78V3.754Z" transform="translate(-43.26)" fill="#fff" fill-rule="evenodd"/>
    <path id="Path_397" data-name="Path 397" d="M6.3,35.938V54.023L0,50.613V39.692Z" transform="translate(0 -29.722)" fill="#fff" fill-rule="evenodd"/>
    <path id="Path_398" data-name="Path 398" d="M776.051,159.74h-1.343v-3.847h-3.952v3.847h-1.343v-8.79h1.343v3.782h3.952V150.95h1.343Z" transform="translate(-636.349 -124.844)" fill="#fff"/>
    <path id="Path_404" data-name="Path 404" d="M0,0H1.33V8.79H0Z" transform="translate(145.636 26.106)" fill="#fff"/>
    <path id="Path_399" data-name="Path 399" d="M885.378,159.741h-1.343v-8.79h2.452a3.382,3.382,0,0,1,2.335.737,2.556,2.556,0,0,1,.822,2,2.723,2.723,0,0,1-.469,1.572,2.541,2.541,0,0,1-1.265.932l2.3,3.547h-1.6l-2.061-3.339h-1.161Zm1.148-7.669h-1.148v3.208h1.213a1.7,1.7,0,0,0,1.265-.437,1.591,1.591,0,0,0,.43-1.167q0-1.6-1.761-1.6" transform="translate(-731.148 -124.845)" fill="#fff"/>
    <path id="Path_405" data-name="Path 405" d="M0,0H1.33V8.79H0Z" transform="translate(164.312 26.106)" fill="#fff"/>
    <path id="Path_400" data-name="Path 400" d="M993.365,159.74h-1.344v-8.79h1.591l2.165,3.678q.6,1.03,1.089,1.9t.672,1.226l.182.365q-.078-1.187-.078-3.482V150.95h1.343v8.79H997.4l-2.178-3.665q-.586-.991-1.076-1.872t-.685-1.272l-.2-.378q.1,1.3.1,3.508Z" transform="translate(-820.459 -124.844)" fill="#fff"/>
    <path id="Path_401" data-name="Path 401" d="M1071.308,158.274a4.72,4.72,0,0,1-2.843.822,4.58,4.58,0,0,1-3.319-1.213,4.368,4.368,0,0,1-1.259-3.3,4.334,4.334,0,0,1,4.5-4.539,5.1,5.1,0,0,1,2.556.587v1.382a4.611,4.611,0,0,0-2.5-.7,3.016,3.016,0,0,0-2.276.9,3.72,3.72,0,0,0-.013,4.76,3.139,3.139,0,0,0,2.354.874,3.9,3.9,0,0,0,1.487-.287v-2.426H1068.2v-1.161h3.1v4.212h-.012Z" transform="translate(-879.897 -124.096)" fill="#fff"/>
  </g>
</svg>
